<mxfile host="app.diagrams.net" agent="Mozilla/5.0 (Windows NT 10.0; Win64; x64) AppleWebKit/537.36 (KHTML, like Gecko) Chrome/133.0.0.0 Safari/537.36" version="26.0.16">
  <diagram id="d5ZyUh8OZNZdaSOF7TPr" name="Page-1">
    <mxGraphModel dx="1828" dy="1107" grid="1" gridSize="10" guides="1" tooltips="1" connect="1" arrows="1" fold="1" page="0" pageScale="1" pageWidth="850" pageHeight="1100" math="0" shadow="0">
      <root>
        <mxCell id="0" />
        <mxCell id="1" parent="0" />
        <mxCell id="user" value="User" style="shape=umlLifeline;" parent="1" vertex="1">
          <mxGeometry x="-230" y="40" width="100" height="400" as="geometry" />
        </mxCell>
        <mxCell id="bbyFFjk6ep4y7-VB2pp2-2" value="Input_Name_Save" style="edgeStyle=elbowEdgeStyle;entryX=0.493;entryY=0.224;entryDx=0;entryDy=0;entryPerimeter=0;exitX=0.532;exitY=0.289;exitDx=0;exitDy=0;exitPerimeter=0;" edge="1" parent="1">
          <mxGeometry x="0.0086" y="20" relative="1" as="geometry">
            <mxPoint x="-179.99999999999994" y="130.40000000000003" as="sourcePoint" />
            <mxPoint x="-20.699999999999818" y="129.60000000000002" as="targetPoint" />
            <mxPoint as="offset" />
          </mxGeometry>
        </mxCell>
        <mxCell id="bbyFFjk6ep4y7-VB2pp2-4" value="UI(View)&#xa;PageBackup" style="shape=umlLifeline;" vertex="1" parent="1">
          <mxGeometry x="-70" y="40" width="100" height="400" as="geometry" />
        </mxCell>
        <mxCell id="bbyFFjk6ep4y7-VB2pp2-5" value="ViewModel&#xa;BackUp" style="shape=umlLifeline;" vertex="1" parent="1">
          <mxGeometry x="100" y="40" width="100" height="400" as="geometry" />
        </mxCell>
        <mxCell id="bbyFFjk6ep4y7-VB2pp2-6" value="&lt;font style=&quot;font-size: 18px;&quot;&gt;L&#39;utilisateur effectue une sauvegarde&lt;/font&gt;" style="text;html=1;whiteSpace=wrap;overflow=hidden;rounded=0;" vertex="1" parent="1">
          <mxGeometry x="120" y="-90" width="430" height="20" as="geometry" />
        </mxCell>
        <mxCell id="bbyFFjk6ep4y7-VB2pp2-7" value="Input_Source_folder" style="edgeStyle=elbowEdgeStyle;exitX=0.532;exitY=0.289;exitDx=0;exitDy=0;exitPerimeter=0;" edge="1" parent="1">
          <mxGeometry x="0.0086" y="20" relative="1" as="geometry">
            <mxPoint x="-179.99999999999994" y="160.40000000000003" as="sourcePoint" />
            <mxPoint x="-20" y="160" as="targetPoint" />
            <mxPoint as="offset" />
          </mxGeometry>
        </mxCell>
        <mxCell id="bbyFFjk6ep4y7-VB2pp2-8" value="Service&#xa;BackUpJob" style="shape=umlLifeline;" vertex="1" parent="1">
          <mxGeometry x="250" y="40" width="100" height="400" as="geometry" />
        </mxCell>
        <mxCell id="bbyFFjk6ep4y7-VB2pp2-9" value="StartBackUp" style="edgeStyle=elbowEdgeStyle;exitX=0.532;exitY=0.289;exitDx=0;exitDy=0;exitPerimeter=0;" edge="1" parent="1">
          <mxGeometry x="0.0086" y="20" relative="1" as="geometry">
            <mxPoint x="150.00000000000006" y="329.6" as="sourcePoint" />
            <mxPoint x="300" y="330" as="targetPoint" />
            <mxPoint as="offset" />
          </mxGeometry>
        </mxCell>
        <mxCell id="bbyFFjk6ep4y7-VB2pp2-10" value="Input_Destination_folder" style="edgeStyle=elbowEdgeStyle;exitX=0.532;exitY=0.289;exitDx=0;exitDy=0;exitPerimeter=0;" edge="1" parent="1">
          <mxGeometry x="0.0086" y="20" relative="1" as="geometry">
            <mxPoint x="-179.99999999999994" y="190.40000000000003" as="sourcePoint" />
            <mxPoint x="-20" y="190" as="targetPoint" />
            <mxPoint as="offset" />
          </mxGeometry>
        </mxCell>
        <mxCell id="bbyFFjk6ep4y7-VB2pp2-11" value="Type_Save" style="edgeStyle=elbowEdgeStyle;exitX=0.532;exitY=0.289;exitDx=0;exitDy=0;exitPerimeter=0;" edge="1" parent="1">
          <mxGeometry x="0.0086" y="20" relative="1" as="geometry">
            <mxPoint x="-179.99999999999994" y="220.40000000000003" as="sourcePoint" />
            <mxPoint x="-20" y="220" as="targetPoint" />
            <mxPoint as="offset" />
          </mxGeometry>
        </mxCell>
        <mxCell id="bbyFFjk6ep4y7-VB2pp2-12" value="Input_Key" style="edgeStyle=elbowEdgeStyle;exitX=0.532;exitY=0.289;exitDx=0;exitDy=0;exitPerimeter=0;" edge="1" parent="1">
          <mxGeometry x="0.0086" y="20" relative="1" as="geometry">
            <mxPoint x="-179.99999999999994" y="250.40000000000003" as="sourcePoint" />
            <mxPoint x="-20" y="250" as="targetPoint" />
            <mxPoint as="offset" />
          </mxGeometry>
        </mxCell>
        <mxCell id="bbyFFjk6ep4y7-VB2pp2-13" value="StartBackup_button" style="edgeStyle=elbowEdgeStyle;exitX=0.532;exitY=0.289;exitDx=0;exitDy=0;exitPerimeter=0;" edge="1" parent="1">
          <mxGeometry x="0.0086" y="20" relative="1" as="geometry">
            <mxPoint x="-179.99999999999994" y="300.40000000000003" as="sourcePoint" />
            <mxPoint x="-20" y="300" as="targetPoint" />
            <mxPoint as="offset" />
          </mxGeometry>
        </mxCell>
        <mxCell id="bbyFFjk6ep4y7-VB2pp2-14" value="" style="endArrow=classic;html=1;rounded=0;entryX=0.485;entryY=0.68;entryDx=0;entryDy=0;entryPerimeter=0;exitX=0.525;exitY=0.68;exitDx=0;exitDy=0;exitPerimeter=0;" edge="1" parent="1" source="bbyFFjk6ep4y7-VB2pp2-4" target="bbyFFjk6ep4y7-VB2pp2-5">
          <mxGeometry width="50" height="50" relative="1" as="geometry">
            <mxPoint x="30" y="310" as="sourcePoint" />
            <mxPoint x="80" y="260" as="targetPoint" />
          </mxGeometry>
        </mxCell>
        <mxCell id="bbyFFjk6ep4y7-VB2pp2-17" value="StartViewmodelBackup" style="edgeLabel;html=1;align=center;verticalAlign=middle;resizable=0;points=[];" vertex="1" connectable="0" parent="bbyFFjk6ep4y7-VB2pp2-14">
          <mxGeometry x="-0.0215" y="-1" relative="1" as="geometry">
            <mxPoint y="-23" as="offset" />
          </mxGeometry>
        </mxCell>
        <mxCell id="bbyFFjk6ep4y7-VB2pp2-18" value="Model&#xa;BackUpJob" style="shape=umlLifeline;" vertex="1" parent="1">
          <mxGeometry x="410" y="40" width="100" height="400" as="geometry" />
        </mxCell>
        <mxCell id="bbyFFjk6ep4y7-VB2pp2-19" value="RunBackup" style="edgeStyle=elbowEdgeStyle;exitX=0.532;exitY=0.289;exitDx=0;exitDy=0;exitPerimeter=0;entryX=0.52;entryY=0.743;entryDx=0;entryDy=0;entryPerimeter=0;" edge="1" parent="1" target="bbyFFjk6ep4y7-VB2pp2-18">
          <mxGeometry x="0.0086" y="20" relative="1" as="geometry">
            <mxPoint x="300.00000000000006" y="336.64000000000004" as="sourcePoint" />
            <mxPoint x="450" y="337.04" as="targetPoint" />
            <mxPoint as="offset" />
          </mxGeometry>
        </mxCell>
        <mxCell id="bbyFFjk6ep4y7-VB2pp2-21" value="" style="endArrow=classic;html=1;rounded=0;exitX=0.521;exitY=0.806;exitDx=0;exitDy=0;exitPerimeter=0;entryX=0.457;entryY=0.801;entryDx=0;entryDy=0;entryPerimeter=0;" edge="1" parent="1" source="bbyFFjk6ep4y7-VB2pp2-8" target="bbyFFjk6ep4y7-VB2pp2-4">
          <mxGeometry width="50" height="50" relative="1" as="geometry">
            <mxPoint x="190" y="530" as="sourcePoint" />
            <mxPoint x="240" y="480" as="targetPoint" />
          </mxGeometry>
        </mxCell>
        <mxCell id="bbyFFjk6ep4y7-VB2pp2-22" value="TextBox (avancement sauvegarde)" style="edgeLabel;html=1;align=center;verticalAlign=middle;resizable=0;points=[];" vertex="1" connectable="0" parent="bbyFFjk6ep4y7-VB2pp2-21">
          <mxGeometry x="0.183" y="-3" relative="1" as="geometry">
            <mxPoint as="offset" />
          </mxGeometry>
        </mxCell>
        <mxCell id="bbyFFjk6ep4y7-VB2pp2-23" value="LogService" style="shape=umlLifeline;" vertex="1" parent="1">
          <mxGeometry x="560" y="40" width="100" height="400" as="geometry" />
        </mxCell>
        <mxCell id="bbyFFjk6ep4y7-VB2pp2-25" value="" style="endArrow=classic;html=1;rounded=0;exitX=0.5;exitY=0.768;exitDx=0;exitDy=0;exitPerimeter=0;entryX=0.508;entryY=0.768;entryDx=0;entryDy=0;entryPerimeter=0;" edge="1" parent="1" source="bbyFFjk6ep4y7-VB2pp2-5" target="bbyFFjk6ep4y7-VB2pp2-23">
          <mxGeometry width="50" height="50" relative="1" as="geometry">
            <mxPoint x="299" y="354.5999999999999" as="sourcePoint" />
            <mxPoint x="607" y="346" as="targetPoint" />
          </mxGeometry>
        </mxCell>
        <mxCell id="bbyFFjk6ep4y7-VB2pp2-26" value="Write Log" style="edgeLabel;html=1;align=center;verticalAlign=middle;resizable=0;points=[];" vertex="1" connectable="0" parent="bbyFFjk6ep4y7-VB2pp2-25">
          <mxGeometry x="0.6146" y="-2" relative="1" as="geometry">
            <mxPoint x="18" y="-19" as="offset" />
          </mxGeometry>
        </mxCell>
      </root>
    </mxGraphModel>
  </diagram>
</mxfile>
